<?xml version="1.0" encoding="UTF-8"?>
<!DOCTYPE svg  PUBLIC '-//W3C//DTD SVG 20010904//EN'  'http://www.w3.org/TR/2001/REC-SVG-20010904/DTD/svg10.dtd'>
<svg width="800pt" height="443pt" version="1.0" viewBox="0 0 800 443" xmlns="http://www.w3.org/2000/svg">
<g transform="translate(0 443) scale(.1 -.1)">
<path d="m4315 4411c-78-19-115-69-115-156v-55l-27 7c-97 27-172-26-193-134-24-130 70-278 191-297l42-7-6-42c-23-157-18-160 24-19 16 54 27 76 43 82 38 14 40-6 12-106-15-53-25-98-23-100 1-2 19 34 39 79l35 82 54-3c44-3 61 1 89 20 75 51 99 131 65 218l-14 35 5-55c6-67-15-108-70-134-30-14-43-15-71-6-32 10-105 82-105 102 0 5 15 24 34 42 18 19 36 44 39 56l6 22-19-20c-41-43-102-40-169 8-44 33-50 27-25-26 16-34 58-64 89-64 20 0 20-46-1-54-29-11-115-6-143 9-41 21-79 69-92 117-21 79 32 157 117 174 20 3 44-3 77-19l48-25-16 24c-19 30-19 63 1 114 51 128 243 112 305-25 23-49 24-120 4-159-9-16-13-31-10-34 8-8 45 81 45 111 1 100-68 201-157 231-50 17-62 18-108 7z"/>
<path d="m2542 4080c-95-22-127-143-72-268 39-87 103-132 188-132 92 0 161 76 170 187 5 58-8 99-46 150-26 35-89 79-99 69-4-3-1-6 5-6s28-15 48-32c91-81 99-222 15-270-71-42-149-30-204 31-47 52-64 108-46 147 21 43 74 74 126 74 27 0 42 4 38 10-6 9-80 51-87 49-2-1-18-5-36-9z"/>
<path d="m4507 4037c-3-8 1-14 8-14s11 6 8 14c-3 7-6 13-8 13s-5-6-8-13z"/>
<path d="m1159 3691c-130-27-229-157-230-301-1-42 5-79 15-97 15-29 14-31-25-84-51-68-73-109-94-184-22-74-16-174 13-231 26-51 91-110 151-137 61-28 164-30 204-3 28 19 28 19 85-10 48-24 69-29 133-29 67 0 81 4 124 30 65 40 104 97 105 151 0 23 6 46 13 51 22 16 87 34 105 29 26-8 274-37 278-33 3 2-50 19-116 37s-120 36-120 40c0 12 36 40 51 40 8 0 70-18 139-39 175-56 172-52-26 40-49 22-90 42-92 44-8 7 19 45 32 45 7 0 49-16 92-36 91-41 174-75 174-71 0 2-56 39-124 81l-124 78 5 92c5 72 2 104-11 144-21 61-92 144-149 174-51 26-142 34-204 19-43-11-49-11-58 5-25 43-89 102-137 127-58 28-149 41-209 28zm132-91c48-13 95-46 132-92l29-37-20-33c-11-18-26-52-33-76-10-34-21-47-50-63-36-18-97-84-87-94 2-2 23 5 47 17 79 39 183 22 230-38 20-26 21-26 21-5 0 60-65 131-120 131-29 0-25 11 18 52 109 105 268 116 361 26 56-55 76-103 76-188 0-90-30-163-95-234-43-46-107-92-116-83-3 2 0 25 7 51 13 54 5 127-19 156-16 20-17 18-18-57 0-59-5-88-22-119-38-75-115-123-194-125-39 0-41-1-18-10 14-6 53-9 88-7 52 2 62 0 62-13 0-28-79-98-124-110-52-14-149-6-182 16l-26 17 29 31c47 51 60 75 23 40-104-96-279-83-373 28-55 63-73 134-57 220 11 64 59 180 93 224 15 20 16 20 44-6 15-14 51-41 78-59l50-33-53 52c-29 29-59 65-67 81-56 108-30 237 61 299 69 47 149 62 225 41z"/>
<path d="m5506 3685c-36-37-27-88 20-105 40-16 84 19 84 64 0 44-72 72-104 41z"/>
<path d="m4834 3650c-71-28-90-143-38-228 53-86 179-122 258-73 41 26 76 92 76 146 0 46-38 115-77 140-28 18-28 18 3-16 43-47 54-71 54-121 0-110-149-151-245-67-90 79-59 165 68 188l42 7-32 17c-34 18-75 21-109 7z"/>
<path d="m3695 3608c-52-30-61-90-19-132 57-56 154-18 154 60 0 60-80 103-135 72z"/>
<path d="m4181 3564c0-11 3-14 6-6 3 7 2 16-1 19-3 4-6-2-5-13z"/>
<path d="m6333 3499c-228-44-348-351-232-598 34-74 42-63-89-128-51-25-91-47-89-49s57 14 122 36c89 30 122 37 132 29 27-23 10-36-102-74-63-22-113-41-111-43 2-1 61 9 132 23 159 31 164 31 164 1 0-25-24-33-185-57-38-5-72-13-75-16s57-3 133-1l139 5 38-52c194-262 580-236 580 39 0 40 6 60 26 87 45 60 56 98 58 197l1 92 35 6c19 4 78 15 130 24 52 10 98 15 101 12 4-4 10-17 13-29 6-19 2-22-51-33-32-7-83-18-113-26-54-14-53-14 72-10 124 4 127 3 150-21 30-32 63-49 115-58 23-3 44-13 47-21 9-22 107-80 158-92 100-25 204-6 271 49 69 57 103 161 86 257-33 174-181 315-327 311-46-2-46-2 13-9 104-12 165-55 217-153 19-35 23-58 23-142 0-88-3-107-26-150-32-63-88-103-154-111-138-17-232 68-243 219-3 37-8 67-12 67-17 0-50-88-50-133 0-41-3-47-22-47-29 0-93 70-102 110-10 54-7 139 7 173 19 45 88 104 138 117 52 14 85 6 123-28l30-27-16 25c-42 69-176 79-253 18-38-30-74-91-86-147l-10-48-125-47c-69-25-131-46-138-46s-27 28-44 63c-41 83-119 159-197 193-53 23-63 32-79 70-28 68-98 140-154 157-65 21-119 26-169 16zm164-114c101-30 164-102 197-226 17-64 21-33 5 41-6 28-8 54-5 57 12 12 86-31 130-75 117-116 128-259 30-387-15-20-16-19-47 16-38 43-76 73-62 49 62-102 76-130 86-174 31-141-69-237-236-224-75 7-136 34-199 89-60 53-94 112-110 191-12 60-13 61-20 31-4-18-11-33-14-33-8 0-60 63-84 102-49 78-73 226-52 314 21 87 96 188 167 223 51 25 140 28 214 6z"/>
<path d="m6270 3104c-34-68-38-164-11-236 36-95 132-164 244-174 57-5 57-5-41 39-63 29-142 104-168 162-28 60-32 156-9 212 22 53 11 51-15-3z"/>
<path d="m2402 3448c-7-7-12-21-12-33 0-48 59-62 86-20 16 24 16 27-1 45-20 22-55 26-73 8z"/>
<path d="m125 3406c-74-33-110-111-103-220 15-216 206-363 373-287 109 49 169 203 131 333-17 60-86 147-137 173-45 24-45 17-2-14 74-53 122-144 123-229 0-61-17-99-59-135-130-109-344-10-359 166-4 46-1 57 23 85 38 46 80 64 147 66 32 0 58 4 58 8 0 14-91 60-128 64-20 2-51-2-67-10z"/>
<path d="m5772 1890c-71-16-106-74-100-169 7-135 93-231 205-231 65 0 97 17 135 69 60 84 56 194-9 270-35 41-90 78-101 67-3-3 0-6 7-6 6 0 31-18 56-41 51-47 81-120 71-174-20-105-152-148-241-80-65 49-94 143-60 191 20 29 75 54 120 54 43 0 39 13-13 39-26 12-47 16-70 11z"/>
<path d="m6993 1879c-82-15-164-88-200-176-11-27-26-46-38-48-16-4-228-31-285-36-36-4 114-17 203-18l97-1v-40-40l-132-1c-140-1-139-3 32-33 127-23 127-23 134-50 8-32 80-95 117-103 22-4 34-15 44-39 36-88 173-177 290-189 218-24 382 185 331 423-32 153-98 252-201 303-72 35-148 49-160 29-6-9-4-11 4-5 21 12 129-16 173-45 112-76 159-255 107-412-39-120-107-190-202-210-48-10-64-9-112 6-131 41-192 158-165 314 6 35 9 66 7 69-9 8-59-51-78-92-10-22-19-55-19-72 0-38-1-38-41-17-43 22-69 83-69 164 0 113 29 176 107 236 94 72 208 63 259-20 18-28 23-33 19-16-11 41-40 74-86 97-57 27-84 32-136 22z"/>
<path d="m342 1826c-90-29-169-126-180-222-4-39-12-53-53-91-123-115-123-269-1-388 50-48 132-92 188-101 36-5 43-10 47-33 8-37 64-110 107-139 119-80 297-60 390 45 39 45 53 76 64 145 4 23 15 42 31 52 73 48 98 100 93 196l-3 62 55 30c30 16 121 64 202 106s146 77 144 79c-1 2-101-31-222-72l-219-75-17 21c-10 12-18 24-18 28 0 3 73 33 163 65 89 33 182 68 207 78 44 18 44 19 10 14-48-6-434-87-439-92-2-1-26 8-53 22-28 14-47 29-42 33s81 20 169 36c88 15 201 36 250 46l90 18-245-5c-135-3-261-7-281-9-31-4-40 0-70 31-100 106-255 157-367 120zm204-59c57-29 134-107 134-137 0-18-6-20-63-20-42 0-75-6-100-19-30-15-45-17-70-10-61 17-73 8-22-15 56-26 103-72 133-131l21-40 1 40c0 44-27 98-59 115-31 16-25 28 20 40 81 22 245-34 310-107 43-47 79-137 79-194 0-85-66-162-172-201l-63-23 50-3c28-2 54-7 59-12 13-13-13-78-47-117-41-47-119-83-178-83-65 0-161 50-201 104-25 35-29 48-25 86 2 25 6 52 9 60 2 8 0 5-6-7-12-29-39-29-113-2-83 31-155 105-178 182-32 112 11 206 139 299 40 29 38 40-2 12-32-22-38-12-23 38 16 51 113 152 162 167 55 17 148 7 205-22z"/>
<path d="m1925 1235c-80-80 34-196 120-122 21 17 27 32 27 62 0 76-93 115-147 60z"/>
<path d="m5982 1228c-28-28-7-78 33-78 29 0 45 19 45 51 0 37-51 54-78 27z"/>
<path d="m5339 997c7-9 42-37 77-62 64-46 72-58 54-85-11-17-19-14-122 59l-63 44 81-84c68-69 82-90 82-117 1-43 11-73 32-97 11-13 19-43 22-85 6-78 30-129 90-189 82-82 172-108 268-76 108 36 180 148 180 281 0 58-20 134-35 134-3 0 0-10 6-22 17-32 15-126-3-169-22-50-71-103-126-136-39-23-59-28-113-28-55 0-72 4-108 28-23 15-55 49-72 74-48 77-37 151 36 232 37 41 37 41 12 41-36 0-78-17-105-43-23-22-24-22-38-3-48 66 40 203 143 222 56 11 138-13 178-50 28-27 35-41 36-72 0-30 2-34 8-19 19 47-33 131-102 164-60 29-130 28-192-4l-49-24-95 51c-53 29-90 44-82 35z"/>
<path d="m3989 805-4-70-60-6c-135-13-216-113-216-267 0-60 5-81 28-123 33-62 81-97 144-105 47-6 47-6 54-53 10-63 29-96 76-130 55-41 125-56 189-42 72 15 108 36 162 92 77 79 93 165 50 259-18 38-31 52-77 77-27 15-27 13 8-19 111-105 83-271-60-355-35-20-59-26-103-26-101 0-171 50-214 154l-15 37 64 31c51 25 72 31 100 25 52-9 96 2 135 36l35 29-43-21c-69-33-151-4-195 70l-22 37-3-33c-2-21 5-47 18-69 24-41 21-46-44-64-119-33-229 61-230 196-2 151 103 226 273 196 36-7 92-23 124-35 31-13 57-21 57-17 0 3-14 18-32 33l-33 26 20 22c52 57 133 64 204 17 53-36 74-84 69-161-3-33-8-70-12-81-3-11 2-4 11 15 24 47 24 163 0 207-57 107-207 124-324 38-21-16-21-16-38 59-9 42-19 76-22 76s-2-31 2-70l7-70h-25c-34 0-39 11-47 90l-7 65-4-70z"/>
<path d="m2452 830c-94-57-97-212-7-318 108-125 271-84 315 78 16 58 5 119-28 169-28 41-87 91-106 91-6 0-2-6 9-12 60-33 115-122 115-186 0-92-97-161-189-134-50 15-117 88-126 136-15 76 39 136 121 136 51 0 55 9 16 32-46 27-84 30-120 8z"/>
<path d="m5940 796c0-2 8-10 18-17 15-13 16-12 3 4s-21 21-21 13z"/>
<path d="m4845 758c-57-31-71-93-31-133 50-50 122-40 150 20 18 37 11 68-21 97-24 22-73 30-98 16z"/>
<path d="m5970 756c0-2 8-10 18-17 15-13 16-12 3 4s-21 21-21 13z"/>
</g>
</svg>
