<?xml version="1.0" encoding="UTF-8"?>
<!DOCTYPE svg  PUBLIC '-//W3C//DTD SVG 20010904//EN'  'http://www.w3.org/TR/2001/REC-SVG-20010904/DTD/svg10.dtd'>
<svg width="484pt" height="511pt" version="1.0" viewBox="0 0 484 511" xmlns="http://www.w3.org/2000/svg">
<g transform="translate(0 511) scale(.1 -.1)">
<path d="m2570 5051c-244-53-441-192-538-380-80-154-106-282-128-631-8-135-21-290-29-345-15-103-42-205-55-205-3 0-40 25-80 56-86 65-156 102-260 137-395 135-801 126-1057-24-141-83-245-228-279-389-23-109-15-273 18-365 44-125 147-260 289-380l77-65-20-58c-68-191 74-376 276-360 75 6 115 26 172 85 99 101 95 252-10 352-19 19-33 38-30 42 3 5-1 6-9 3s-18 0-23 7c-5 8-3 10 7 4 8-5 11-4 6 0-4 5-15 10-25 11-9 1-35 9-57 18-22 8-55 15-73 16-30 0-35 5-57 53-42 91-56 161-44 224 15 79 23 97 70 148 96 104 280 94 396-22 107-107 349-587 409-810 11-42 18-146 24-378 7-242 14-349 29-438 54-310 155-604 265-769 116-174 329-359 514-446 65-31 88-36 147-37 62 0 80 5 145 37 204 101 429 289 538 450 86 125 183 384 240 638 44 191 51 262 62 643 6 186 15 375 21 420 30 252 216 583 373 665 85 45 223 34 344-27 97-49 222-177 222-228 0-4-22-16-48-26-62-21-134-85-161-140-32-67-29-169 7-238 50-96 168-159 270-144 188 28 288 222 202 391-16 32-30 65-30 73s14 56 30 108c66 204 17 413-140 601-195 233-587 387-940 369-249-13-421-94-545-255l-64-83-5 43c-3 24-12 95-20 159-18 147-50 241-136 404-101 194-117 264-85 390 23 92 98 235 152 292 74 78 120 98 228 98 50 0 111-6 136-14l47-13-26-57c-50-109-30-232 52-314 50-50 90-69 161-74 112-9 201 36 260 132 27 43 30 57 30 129 0 93-17 137-73 194-54 53-114 76-205 76-74 1-80 3-98 28-27 36-131 114-201 149-31 16-97 41-145 55-78 24-108 27-263 30-142 3-191 0-260-15zm-361-2609c59-25 188-107 273-174l26-21 89 67c101 76 194 127 272 150 110 32 164 17 252-73 76-76 123-165 163-303 40-139 48-250 36-548-13-349-18-391-52-475-87-210-323-577-435-675-48-43-213-151-276-181l-47-23-58 28c-87 43-221 133-276 184-126 121-339 452-426 662-38 92-46 170-55 545-6 226-5 285 9 361 42 238 143 422 266 487 48 25 62 28 113 23 32-3 89-19 126-34z"/>
<path d="m2040 1966c-138-37-218-148-228-315-4-73-2-90 12-104 25-24 37-22 97 19 160 108 260 116 419 33 42-21 79-39 83-39 13 0 7 109-9 179-30 132-95 200-220 226-82 17-95 17-154 1zm167-81c63-19 106-65 128-137 8-28 13-53 11-56-3-2-29 4-58 14-37 14-80 19-145 19-88-1-97-3-173-42l-80-41v30c0 63 22 119 64 160 23 22 55 46 71 54 40 18 120 17 182-1z"/>
<path d="m2860 1967c-30-7-69-21-86-30-52-27-103-95-124-165-19-61-31-194-19-206 3-4 42 12 85 34 163 83 264 75 413-31 77-55 102-51 116 21 8 44-11 162-34 215-57 130-202 196-351 162zm163-76c71-27 129-110 142-204l8-49-54 31c-111 62-239 76-352 36-27-9-52-14-55-11-8 9 26 108 46 132 25 29 67 55 105 64 46 11 132 12 160 1z"/>
<path d="m1860 1055c-24-29 4-95 168-385 62-109 177-194 262-194 35 0 63 10 112 37 89 50 132 50 213-1 75-46 134-50 208-12 56 28 132 105 169 170 164 292 192 356 168 385-22 26-68 17-188-39-193-89-390-127-550-106-142 18-250 49-373 106-118 55-167 65-189 39zm280-159c155-52 271-69 415-63 165 8 275 37 503 134 7 3-3-23-23-58-19-35-58-108-86-161-56-108-124-180-187-197-38-11-40-11-137 45-70 40-160 40-230 0-98-56-98-56-140-45-55 15-135 100-180 190-21 41-57 109-81 151-24 43-44 79-44 82s19-6 43-19c23-13 89-40 147-59z"/>
</g>
</svg>
