<?xml version="1.0" encoding="UTF-8"?>
<!DOCTYPE svg  PUBLIC '-//W3C//DTD SVG 20010904//EN'  'http://www.w3.org/TR/2001/REC-SVG-20010904/DTD/svg10.dtd'>
<svg width="484pt" height="511pt" version="1.0" viewBox="0 0 484 511" xmlns="http://www.w3.org/2000/svg">
<g transform="translate(0 511) scale(.1 -.1)" fill="#122D3A">
<path d="m2580 5056c-252-54-452-195-552-391-80-157-102-264-123-615-8-135-22-292-30-350-16-109-43-210-56-210-4 0-36 23-71 51-213 172-637 271-978 228-125-15-194-35-300-86-77-37-109-60-171-122-128-128-177-271-166-485 7-133 22-196 68-271 47-79 165-211 254-284l74-62-19-50c-72-181 55-369 250-369 103 0 184 47 238 139 23 40 27 57 27 126 0 90-14 126-74 188-49 53-98 76-178 85l-68 7-28 70c-39 98-46 134-35 200 11 75 38 125 89 168 92 79 236 71 354-19 98-74 323-504 415-791l31-98 9-330c11-377 25-482 104-757 92-319 205-509 409-686 170-148 327-234 437-240 59-3 73 0 145 36 171 84 416 279 514 409 99 132 193 360 260 636 48 195 59 299 71 667 6 190 15 386 21 435 29 259 225 608 377 673 72 31 120 35 203 18 137-29 265-112 331-215 31-50 35-71 13-71-27 0-111-48-145-82-50-50-70-102-70-186 0-112 46-189 143-238 135-69 294-17 363 119 23 44 26 60 22 132-2 69-7 88-30 123-16 23-28 48-28 56s14 56 30 106c110 336-95 690-503 868-308 136-676 148-910 31-98-50-153-95-216-180l-60-80-5 43c-3 24-11 88-17 142-17 158-42 236-124 394-124 237-136 295-89 444 53 169 143 296 241 341 57 26 190 30 264 8l47-13-26-57c-66-140-11-305 123-367 98-46 225-26 304 49 82 78 106 213 55 315-48 97-130 145-249 147l-80 1-63 61c-72 70-196 140-312 174-63 18-105 22-260 25-129 2-205-1-250-10zm-405-2601c66-22 184-93 266-159l66-53 89 68c161 125 319 185 414 159 65-18 163-121 213-224 88-182 111-345 97-688-15-375-18-403-52-488-64-162-252-469-377-617-64-75-208-181-325-238l-58-28-56 27c-104 51-248 154-312 223-93 102-252 347-341 528l-79 160-9 120c-5 66-13 230-16 365-6 202-4 262 9 344 43 263 158 462 295 513 42 16 106 11 176-12z"/>
<path d="m2030 1971c-77-24-156-97-191-176-26-59-38-209-20-243 17-31 51-27 102 12 91 69 125 81 231 81 96 0 97 0 187-47l91-47v74c0 133-58 261-139 309-65 38-197 56-261 37zm161-82c67-14 118-64 142-138 9-30 15-56 13-58s-28 4-57 14c-79 26-228 24-293-5-26-12-61-32-77-43l-29-20v29c0 60 28 126 72 169 24 23 54 46 68 52 34 13 98 13 161 0z"/>
<path d="m2880 1973c-103-17-180-75-220-165-26-59-47-209-34-237 9-19 11-18 66 14 79 47 138 65 212 65 80 0 132-18 211-75 105-75 130-63 129 62-1 120-28 190-99 260-72 70-156 94-265 76zm143-86c79-34 128-102 142-199l7-47-81 41c-71 37-90 42-163 46-64 3-98-1-148-17-35-11-66-18-68-16-3 2 1 25 8 50 19 67 74 124 135 140 65 18 128 18 168 2z"/>
<path d="m1871 1063c-35-24-23-73 47-194 33-57 73-132 90-166 41-80 129-175 194-207 76-38 118-34 200 15 61 37 74 41 117 37 32-3 67-17 107-41 73-45 118-48 191-11 65 32 159 132 197 210 16 32 56 106 89 163 70 123 81 171 45 195-30 19-49 14-180-48-104-50-235-88-368-106-151-21-376 23-554 108-128 61-146 66-175 45zm229-156c86-32 214-63 321-76 153-20 395 25 567 104 41 19 77 35 79 35s-10-24-27-52c-17-29-53-96-80-149-106-204-199-262-304-190-24 17-67 36-95 43-66 15-135 0-197-43-29-20-58-31-79-31-72 0-147 72-216 206-23 44-59 111-80 148-22 36-39 69-39 72 0 2 19-6 43-19 23-13 71-35 107-48z"/>
</g>
</svg>
