<?xml version="1.0" encoding="UTF-8"?>
<!DOCTYPE svg  PUBLIC '-//W3C//DTD SVG 20010904//EN'  'http://www.w3.org/TR/2001/REC-SVG-20010904/DTD/svg10.dtd'>
<svg width="868pt" height="414pt" version="1.0" viewBox="0 0 868 414" xmlns="http://www.w3.org/2000/svg">
<g transform="translate(0 414) scale(.1 -.1)" fill="#122D3A">
<path d="m4980 4084c-85-24-172-48-193-54l-37-11 2-436 3-435 123-51 122-51v-738-738h-60-60v694c0 543-3 696-12 703-7 6-98 38-201 73l-188 62-392-61c-216-34-395-61-399-61-5 0-8 86-8 190 0 105-3 190-6 190s-67 16-142 36-236 62-357 93c-220 57-221 57-275 43-30-8-262-67-515-131-455-116-460-117-457-141 1-14 4-30 7-37 3-8 153 26 494 113 270 68 493 124 496 124s5-560 5-1245-3-1245-7-1245c-19 1-33 19-49 65-24 73-47 100-106 125-110 47-227 12-285-87-24-41-28-59-28-123-1-41-6-85-13-97-18-33-15-77 9-107 17-22 28-26 67-26 26 0 56 7 66 15 11 8 28 15 38 15 17 0 18-12 18-165v-165h-383-384l-7 937c-4 516-9 940-12 942-2 2-133-22-292-55l-287-59-6-142-82-23c-45-13-85-26-88-29-7-6-19-883-19-1328v-243h-125-125v117 117l42 50c24 27 37 47 30 42-8-5-12 0-13 16-1 20-2 20-9-6-9-30-37-66-52-66-4 0-8 15-8 33 0 17-5 51-10 75-10 41-9 44 24 76l35 32 10-43c27-104 134-113 161-13 23 87-46 133-142 95-16-6-18-1-18 38 0 55-33 100-86 117-117 39-213-81-157-197 10-22 13-37 6-41-5-4-15-17-22-29-48-93 58-175 139-107 17 15 33 24 35 22 6-5-12-246-21-295-5-28-10-33-35-33-27 0-29 2-23 28 3 15 8 33 10 41 18 58-51 152-127 171-39 10-48 17-63 50-17 39-42 61-84 74-17 6-22 3-22-11 0-13 15-26 44-40 24-12 47-32 51-43 4-12 5-22 3-24-1-1-23-14-46-30-42-26-45-27-77-12-18 9-45 16-59 16s-26 5-26 10c0 6-7 10-15 10s-15-8-15-18-5-23-12-30c-19-19 0-27 60-24 74 3 85-4 72-48-6-22-6-46 0-70 5-19 10-38 10-42 0-5-36-8-80-8-62 0-82 3-86 15-4 8-10 15-15 15-4 0-6-7-3-15 5-13-11-15-110-15h-116v-85-85h4335 4335v85 84l-152 3-153 3-3 68c-2 42 2 74 9 83 8 10 8 14 0 14-6 0-11 14-11 30 0 34 10 37 51 13 36-22 77-9 99 30 14 25 13 30-2 58-13 22-16 42-12 68 14 87-60 173-149 173-79-1-124-31-158-109-19-44-39-57-39-25-1 9-2 261-3 559s-5 544-9 548c-3 4-149 29-325 57l-318 50-222-76-6-321c-4-176-7-524-7-773v-453l-32 3-33 3v483 482l-35 6c-19 3-41 7-47 9-10 3-13 55-13 213 0 115-3 243-6 285l-7 76-72 6-3 383c-1 210-5 382-8 382s-154 34-337 76c-183 41-345 76-360 76-38 1-57-26-22-30l25-3v-380-379h-70c-103 0-219-28-205-49 2-5 31-2 62 5 32 8 70 14 86 14h27v-274c0-151-3-281-6-290-4-12-20-16-55-16h-49v-540-540h-75-75v1173c0 981-8 2276-14 2284-2 3-391 143-579 209-71 25-130 44-132 42s-6-577-10-1278c-3-701-8-1276-10-1279-2-2-16-1-30 3l-25 6-1 1150c-1 633-3 1155-4 1160-1 6-3 62-4 125 0 63-4 115-8 114-5 0-78-21-163-45zm410-260c0-46-4-50-43-35-22 8-24 15-22 53 2 24 4 44 4 45 1 1 15-3 31-8 27-10 30-15 30-55zm78 20c18-5 22-13 22-50 0-46-1-47-37-38-19 5-23 13-23 50 0 46 1 47 38 38zm106-34c22-8 26-16 26-50 0-41-9-48-44-34-11 4-16 19-16 50 0 49-1 48 34 34zm126-85v-44l-30 10c-27 10-30 15-30 54v44l30-10c27-10 30-15 30-54zm84 19c11-4 16-19 16-50 0-49 1-48-34-34-22 8-26 16-26 50 0 41 9 48 44 34zm93-32c14-9 21-81 8-82-34-3-45 9-45 49s10 50 37 33zm-413-12c23-8 26-15 26-54v-45l-30 10c-27 10-30 15-30 55 0 24 2 44 4 44 3 0 16-4 30-10zm120-36c11-4 16-19 16-50 0-49 1-48-34-34-22 8-26 16-26 50 0 41 9 48 44 34zm100-30c11-4 16-19 16-50 0-49 1-48-34-34-22 8-26 16-26 50 0 41 9 48 44 34zm100-30c11-4 16-19 16-50 0-49 1-48-34-34-22 8-26 16-26 50 0 41 9 48 44 34zm-416-20c18-5 22-13 22-50 0-45-6-50-44-35-15 6-20 18-22 49-2 43 2 47 44 36zm523-51c5-44 0-50-35-37-11 4-16 19-16 46 0 35 2 39 23 36 18-2 23-11 28-45zm-423 21c18-5 22-13 22-50 0-46-1-47-37-38-19 5-23 13-23 50 0 46 1 47 38 38zm110-30c18-5 22-13 22-50 0-46-1-47-37-38-19 5-23 13-23 50 0 46 1 47 38 38zm106-30c11-4 16-19 16-51 0-37-3-44-16-39-9 3-22 6-30 6-10 0-14 13-14 45 0 46 8 53 44 39zm100-30c11-4 16-19 16-49 0-42-1-43-27-36-24 6-28 13-31 49-3 43 5 50 42 36zm-394-80c0-43-1-44-27-38-36 9-36 9-40 47-4 51 2 58 37 46 27-10 30-15 30-55zm505 6c0-40-7-46-39-34-11 4-16 19-16 50 0 43 0 43 28 33 23-8 27-15 27-49zm-2598-30c142-33 267-64 278-69 18-8 20-18 20-111l-1-103-79-19c-44-10-131-30-192-45l-113-26v-1278-1279h-100-100v1495c0 1286 2 1495 14 1495 8 0 131-27 273-60zm2167 50c23-8 26-15 26-54 0-43-1-44-27-37-25 7-28 13-31 54-3 52-4 51 32 37zm110-30c22-8 26-16 26-50 0-41-9-48-44-34-11 4-16 19-16 50 0 49-1 48 34 34zm104-26c19-5 22-13 22-51 0-37-3-44-16-39-9 3-22 6-30 6-10 0-14 13-14 45 0 47 1 48 38 39zm106-30c21-8 23-84 2-84-35 0-46 13-46 51 0 40 9 46 44 33zm90-23c14-5 19-18 20-49 0-23-1-42-4-42-38 1-50 14-50 56 0 45 2 48 34 35zm-510-11c22-8 26-16 26-50 0-36-3-40-24-40-31 0-41 15-42 63-2 40 1 42 40 27zm110-26c11-4 16-19 16-51 0-37-3-44-16-39-9 3-22 6-30 6-10 0-14 13-14 45 0 46 8 53 44 39zm124-73c3-41 2-42-25-39-26 3-28 7-31 50l-3 47 28-8c24-6 28-13 31-50zm88 19c10 0 14-13 14-45 0-47-1-48-37-39-20 5-23 13-23 51 0 37 3 44 16 39 9-3 22-6 30-6zm195-50c5 0 9-20 9-44 0-41-1-43-25-38-22 4-25 9-25 49 0 37 3 44 16 39 9-3 20-6 25-6zm-507-16c20-8 23-94 4-93-39 2-53 17-54 58-2 43 10 51 50 35zm102-24c10 0 14-13 14-45 0-46-8-53-44-39-11 4-16 19-16 51 0 37 3 44 16 39 9-3 22-6 30-6zm108-26c11-4 16-19 16-51 0-37-3-44-16-39-9 3-22 6-30 6-10 0-14 13-14 45 0 46 8 53 44 39zm102-24c10 0 14-13 14-45 0-47-1-48-37-39-20 5-23 13-23 51 0 37 3 44 16 39 9-3 22-6 30-6zm112-68c3-42 2-43-25-40-25 3-28 7-31 46-3 42-2 43 25 40 25-3 28-7 31-46zm79 20c12-8 22-81 10-82-47-1-47-1-47 45 0 44 10 54 37 37zm-489-71 3-42-33 3c-30 3-32 5-34 43-2 52 1 55 34 46 23-6 27-13 30-50zm-998-34v-83l-327-38c-181-21-340-40-355-43-26-5-28-9-28-59 0-30 3-54 8-54 4 0 161 18 350 38 188 21 345 36 347 33 11-10 4-82-7-86-7-2-148-18-313-35s-319-33-342-36l-43-6v-54c0-30 4-54 10-54 17 0 613 59 658 66l43 5-6-96-130-12c-71-7-226-22-343-33s-217-20-222-20c-6 0-10-25-10-55 0-48 3-55 19-55 23 0 561 47 639 56l52 5v-45c0-43-1-45-32-50-32-5-641-56-665-56-9 0-13-18-13-55 0-53 1-55 28-55 15 0 167 11 337 25 171 14 318 25 328 25 14 0 17-9 17-44v-45l-52-5c-60-7-604-46-637-46-19 0-21-6-21-55v-55h33c17 0 165 9 327 20 390 26 350 29 350-25 0-25-1-45-2-45-36-4-644-40-670-40h-38v-55-55h58c31 0 174 7 317 15s277 15 298 15h37v-45c0-42-2-45-27-46-16 0-174-8-353-17l-325-17-3-49c-2-27 0-52 5-56 4-4 136-1 293 7 157 7 480 19 718 26l432 12v-527-528h-295-295v40c0 84-59 153-142 166-27 5-38 12-38 24 0 9-9 29-21 44-84 107-249 51-249-83 0-35-39-67-41-34-14 258-14 305 5 258 9-24 68-55 107-55 109 0 168 142 91 220l-27 26 23 34c34 51 33 131-1 195-44 80-169 115-248 69-59-35-92-87-97-154l-4-60-26 20c-31 25-94 26-133 3-16-10-39-37-51-61-18-37-19-49-10-81 18-57 63-95 118-97 40-2 47-6 76-45 17-24 46-60 65-80l34-36 2-157 2-156h-217-218v1214c0 668 3 1217 8 1219 4 3 169 30 367 61s380 60 405 65 51 9 58 10c9 1 12-22 12-82zm1196 33c10 0 14-13 14-45 0-47-1-48-37-39-20 5-23 13-23 51 0 37 3 44 16 39 9-3 22-6 30-6zm114-66c0-45-8-52-44-38-11 4-16 19-16 48 0 42 1 42 30 38 28-4 30-7 30-48zm98-22c3-42 2-43-25-40-25 3-28 7-31 46-3 42-2 43 25 40 25-3 28-7 31-46zm93-20c5-42 5-43-20-40-23 3-26 8-29 46-3 40-2 43 20 40 19-2 24-11 29-46zm-513 8c8 0 12-16 12-45 0-46-5-50-46-39-17 4-20 13-20 50 0 41 2 45 20 40 12-3 27-6 34-6zm98-20c10 0 14-13 14-46 0-44-1-45-27-42s-28 7-31 52c-3 42-1 48 13 42 9-3 23-6 31-6zm122-69c3-41 2-42-25-39-26 3-28 7-31 50l-3 47 28-8c24-6 28-13 31-50zm850-13c3-50 2-52-35-42-20 5-23 13-23 51 0 42 1 44 28 41 25-3 27-7 30-50zm86 23c15-6 20-18 22-49 2-43-6-49-40-36-11 4-16 19-16 50 0 46 2 48 34 35zm-734-46c0-46-8-53-44-39-11 4-16 19-16 45 0 37 2 39 30 39 29 0 30-2 30-45zm846 25c10 0 14-13 14-46 0-44-1-45-27-42s-28 7-31 52c-3 42-1 48 13 42 9-3 23-6 31-6zm-754-45c-5-48-5-49-31-40-17 5-21 15-21 46 0 38 2 40 28 37 25-3 27-6 24-43zm862 19c11-4 16-19 16-43 0-45-3-49-35-43-22 4-25 9-25 48 0 45 8 52 44 38zm-1380-20c20-8 23-94 4-93-40 2-53 17-53 58-1 42 10 50 49 35zm1474 0c18-5 22-13 22-50 0-46-1-47-37-38-19 5-23 13-23 50 0 46 1 47 38 38zm-1360-68c3-42 1-48-13-42-9 3-23 6-31 6-10 0-14 13-14 46 0 44 1 45 28 42 25-3 27-7 30-52zm1468 44c10 0 14-13 14-45 0-46-8-53-44-39-11 4-16 19-16 51 0 37 3 44 16 39 9-3 22-6 30-6zm-1358-48c5-48-2-60-32-55-23 5-26 10-26 50 0 42 1 44 28 41 23-2 28-8 30-36zm830 22c19-5 22-13 22-51 0-42-1-44-27-41s-28 7-31 51c-3 49-2 51 36 41zm-730-52c3-42 2-43-25-40-25 3-28 7-31 46-3 42-2 43 25 40 25-3 28-7 31-46zm102-17c0-46-8-53-44-39-11 4-16 19-16 45 0 37 2 39 30 39 29 0 30-2 30-45zm90-21c0-38-3-45-16-40-9 3-20 6-25 6s-9 18-9 40c0 36 3 40 25 40 23 0 25-4 25-46zm768-5 3-46-31 5c-28 4-30 7-30 49s1 44 28 41c25-3 27-7 30-49zm-1268-46c0-44 0-44-32-41-31 3-33 5-34 43-1 52 0 52 36 47 28-4 30-7 30-49zm1464 51c11-4 16-19 16-51 0-37-3-44-16-39-9 3-22 6-30 6-10 0-14 13-14 45 0 46 8 53 44 39zm-1378-24c10 0 14-13 14-45 0-46-8-53-44-39-11 4-16 19-16 51 0 37 3 44 16 39 9-3 22-6 30-6zm1472 4c19-5 22-13 22-51 0-37-3-44-16-39-9 3-22 6-30 6-10 0-14 13-14 45 0 47 1 48 38 39zm-1370-20c19-5 22-13 22-51 0-37-3-44-16-39-9 3-22 6-30 6-10 0-14 13-14 45 0 47 1 48 38 39zm870-53c5-47-2-59-32-54-24 5-26 10-26 53 0 48 0 48 28 41 21-6 28-14 30-40zm-764 33c11-4 16-19 16-45 0-37-2-39-30-39-29 0-30 2-30 45 0 46 8 53 44 39zm116-59c0-46-8-53-44-39-11 4-16 19-16 45 0 37 2 39 30 39 29 0 30-2 30-45zm755 0c0-42-3-45-34-45-15 0-20 9-23 45-3 46-3 46 27 43 28-3 30-6 30-43zm-674 25c5 0 9-20 9-44 0-41-1-43-25-38-22 4-25 9-25 49 0 37 3 44 16 39 9-3 20-6 25-6zm777-54c3-42 1-48-13-42-9 3-23 6-31 6-10 0-14 13-14 46 0 44 1 45 28 42 25-3 27-7 30-52zm96 28c11-4 16-19 16-43 0-45-3-49-35-43-22 4-25 9-25 48 0 45 8 52 44 38zm114-61c3-42 2-43-27-43-30 0-31 1-31 46 0 44 1 45 28 42 24-3 27-7 30-45zm-1500 31c18-5 22-13 22-50 0-35-3-44-17-44-33 0-47 18-49 59-2 42 3 46 44 35zm1586-10c11-4 16-19 16-46 0-37-2-39-27-36s-28 7-31 46c-3 43 5 50 42 36zm-1464-49c0-43-1-45-30-45s-30 2-30 45 1 45 30 45 30-2 30-45zm110-21c0-45-8-52-44-38-11 4-16 19-16 48 0 42 1 42 30 38 28-4 30-7 30-48zm84 30c11-4 16-19 16-48 0-42-1-42-30-38-28 4-30 7-30 48 0 45 8 52 44 38zm116-60c0-44-1-45-27-42-25 3-28 7-31 46-3 41-2 42 27 42 30 0 31-1 31-46zm747 34c14-19 10-83-4-82-7 1-20 2-28 3-11 1-15 13-15 46 0 37 3 45 19 45 10 0 23-6 28-12zm-659-45c3-40 1-43-22-43-24 0-26 3-26 46 0 41 2 45 23 42 18-2 23-10 25-45zm770-17c3-42 1-48-13-42-9 3-23 6-31 6-10 0-14 13-14 46 0 44 1 45 28 42 25-3 27-7 30-52zm110-4c5-48-2-60-32-55-23 5-26 10-26 50 0 42 1 44 28 41 23-2 28-8 30-36zm100-29c3-42 2-43-27-43-30 0-31 1-31 46 0 44 1 45 28 42 24-3 27-7 30-45zm-1480-21 3-43-33 3c-31 3-33 5-34 46-2 43-1 43 30 40 29-3 31-6 34-46zm1580 1c2-33 0-43-12-43-35 0-46 12-46 52 0 37 2 39 28 36 24-3 27-7 30-45zm-1500 31c18-5 22-13 22-50 0-45-8-52-44-38-11 4-16 19-16 50 0 46 1 47 38 38zm210-30c19-5 22-13 22-51 0-37-3-44-16-39-9 3-22 6-30 6-10 0-14 13-14 45 0 47 1 48 38 39zm758-4c10 0 14-13 14-45 0-43-1-45-30-45s-30 1-30 51c0 43 3 50 16 45 9-3 22-6 30-6zm-636-55c0-46-8-53-44-39-11 4-16 19-16 45 0 37 2 39 30 39 29 0 30-2 30-45zm734 36c15-6 20-18 22-50 2-40 0-42-25-39-23 3-26 8-29 51-3 48-1 51 32 38zm-644-47c0-41-2-45-22-42-19 2-24 10-26 46-3 39-1 42 22 42 24 0 26-3 26-46zm754 30c11-4 16-19 16-51 0-37-3-44-16-39-9 3-22 6-30 6-10 0-14 13-14 45 0 46 8 53 44 39zm124-61c3-42 2-43-27-43-30 0-31 1-31 46 0 44 1 45 28 42 24-3 27-7 30-45zm102-19c0-44-1-45-27-42-25 3-28 7-31 46-3 41-2 42 27 42 30 0 31-1 31-46zm86 26c10 0 14-13 14-45 0-47-1-48-37-39-20 5-23 13-23 51 0 37 3 44 16 39 9-3 22-6 30-6zm-1566-57c0-44 0-44-32-41-30 3-32 6-34 43-2 51-1 53 36 47 28-4 30-7 30-49zm100-8c0-43-1-45-30-45s-30 2-30 45 1 45 30 45 30-2 30-45zm108-12c3-42 2-43-27-43-30 0-31 1-31 46 0 44 1 45 28 42 24-3 27-7 30-45zm-3798 13c0-19-7-26-30-30-16-3-43-9-60-12-27-5-30-3-30 19s6 26 48 35c70 14 72 14 72-12zm3878 18c19-5 22-13 22-51 0-37-3-44-16-39-9 3-22 6-30 6-10 0-14 13-14 45 0 47 1 48 38 39zm122-59c0-47-1-48-37-39-19 5-23 13-23 45 0 37 2 39 30 39 29 0 30-2 30-45zm756-14c2-42 1-42-30-39-17 2-30 6-28 11 1 4 2 25 2 46 0 38 1 39 27 32 23-6 27-13 29-50zm-664 8c4-45-2-53-32-44-16 5-20 15-20 46 0 34 3 39 24 39s24-6 28-41zm-4272 12c0-15-11-22-50-30-69-15-72-14-68 11 3 23 30 34 91 37 20 1 27-4 27-18zm5018 13c18-5 22-13 22-50 0-46-1-47-37-38-19 5-23 13-23 50 0 46 1 47 38 38zm-5188-43c0-20-9-25-72-36-35-5-38-4-38 19 0 20 6 25 33 29 71 9 77 8 77-12zm5420-37c0-45-8-52-44-38-11 4-16 19-16 48 0 42 1 42 30 38 28-4 30-7 30-48zm98-11c3-42 2-43-27-43-30 0-31 1-31 46 0 44 1 45 28 42 24-3 27-7 30-45zm-1580-17c4-48-6-60-41-47-21 8-26 16-25 43 1 44 5 50 36 46 23-3 27-8 30-42zm86 28c11-4 16-19 16-50 0-46-1-47-37-38-19 5-23 13-23 50 0 45 8 52 44 38zm112-14c10 0 14-13 14-45 0-47-1-48-37-39-20 5-23 13-23 51 0 37 3 44 16 39 9-3 22-6 30-6zm114-57c0-37-3-44-16-39-9 3-22 6-30 6-10 0-14 12-14 38 0 46 3 51 35 44 22-4 25-9 25-49zm-3900 23c0-21-6-24-60-33-59-9-60-9-60 14 0 15 7 24 23 27 12 3 31 7 42 9 46 10 55 7 55-17zm4628 18c19-5 22-13 22-51 0-42-1-44-27-41s-28 7-31 51c-3 49-2 51 36 41zm1417-34c110-17 206-33 213-35 9-3 12-156 12-720v-715h-240-240v301 301l83-6c45-3 137-8 205-12l122-6v35 35l-147 6c-82 4-174 9-205 12-54 6-58 8-58 31v26l163-7c89-4 181-9 205-12l42-6v36c0 32-3 36-27 37-16 1-107 6-203 12l-175 12-3 28c-4 32-12 32 241 14l167-12v32c0 30-2 32-42 37-43 5-322 26-352 26-11 0-16 9-16 30v31l58-6c100-10 296-25 325-25 26 0 28 3 25 33l-3 32-190 17c-104 9-196 17-202 17-7 1-13 12-13 26 0 30 1 31 230 10 91-8 168-15 173-15 4 0 7 15 7 33v34l-202 19-203 19-3 28c-2 15 0 27 5 27 18 0 331-30 366-35 37-5 37-5 37 30 0 19-4 35-8 35-5 0-89 9-188 20-98 11-187 20-196 20-13 0-18 8-18 30 0 29 2 31 33 26 17-3 97-13 177-21s157-17 173-20c25-4 27-2 27 29 0 41 7 39-200 61-223 24-210 20-210 67 0 38 1 39 28 34 15-3 117-20 227-36zm-2045-15c0-47-1-48-37-39-19 5-23 13-23 45 0 37 2 39 30 39 29 0 30-2 30-45zm755-15c0-25-4-44-8-42-4 1-16 2-26 2-15 0-20 9-23 45-3 46-3 46 27 43 29-3 30-5 30-48zm-4935 15c0-14-6-25-14-25-7 0-34-3-60-6-42-6-46-5-46 14 0 17 8 22 38 27 20 4 42 8 47 10 25 9 35 3 35-20zm5026 15c10 0 14-13 14-45 0-46-8-53-44-39-11 4-16 19-16 51 0 37 3 44 16 39 9-3 22-6 30-6zm122-57c3-42 2-43-27-43-30 0-31 1-31 46 0 44 1 45 28 42 24-3 27-7 30-45zm-5318 18c0-25-4-27-62-35-46-7-48-6-48 18 0 20 6 25 33 29 71 9 77 8 77-12zm5398 13c18-5 22-13 22-50 0-46-1-47-37-38-19 5-23 13-23 50 0 46 1 47 38 38zm122-60c0-44-1-45-27-42-25 3-28 7-31 46-3 41-2 42 27 42 30 0 31-1 31-46zm-1580-30c0-45 0-45-32-42-30 3-32 6-35 46-2 42-2 42 32 42 35 0 35 0 35-46zm210-19c0-43-1-45-30-45s-30 2-30 45 1 45 30 45 30-2 30-45zm100-10c0-46-8-53-44-39-11 4-16 19-16 45 0 37 2 39 30 39 29 0 30-2 30-45zm-3900 16c0-25-4-27-67-36-52-7-53-6-53 18 0 22 5 26 38 30 80 8 82 8 82-12zm4e3 -27c0-38-3-45-16-40-9 3-22 6-30 6-10 0-14 12-14 40 0 38 2 40 30 40 29 0 30-2 30-46zm648-1c3-42 2-43-27-43-30 0-31 1-31 46 0 44 1 45 28 42 24-3 27-7 30-45zm-556-4c2-22 2-41 1-43-2-2-15-1-28 2-22 4-25 10-25 43 0 34 3 39 24 39s24-6 28-41zm664-7c2-46-6-57-35-47-13 4-20 17-23 46-4 47-2 51 31 47 22-3 25-8 27-46zm-4936 9c0-14-9-21-30-25-16-3-43-9-60-12-27-5-30-3-30 20 0 26 13 31 88 35 25 1 32-3 32-18zm5148-38c3-42 2-43-27-43-30 0-31 1-31 46 0 44 1 45 28 42 24-3 27-7 30-45zm-5318 12c0-17-6-25-17-25-10 0-35-3-55-6-36-6-38-5-38 19 0 27-1 26 93 35 12 2 17-5 17-23zm5418-13c5-48-2-60-32-55-23 5-26 10-26 50 0 42 1 44 28 41 23-2 28-8 30-36zm88 18c10 0 14-13 14-46 0-38-3-45-16-40-9 3-22 6-30 6-10 0-14 13-14 46 0 38 3 45 16 40 9-3 22-6 30-6zm-1566-87c0-44 0-44-32-41-31 3-33 6-34 43-2 51-1 53 36 47 28-4 30-7 30-49zm84 41c11-4 16-19 16-51 0-37-3-44-16-39-9 3-22 6-30 6-10 0-14 13-14 45 0 46 8 53 44 39zm124-51c3-42 2-43-27-43-30 0-31 1-31 46 0 44 1 45 28 42 24-3 27-7 30-45zm102-8c0-43-1-45-30-45s-30 2-30 45 1 45 30 45 30-2 30-45zm100-10c0-47-1-48-37-39-19 5-23 13-23 45 0 37 2 39 30 39 29 0 30-2 30-45zm88-2c3-40 1-43-22-43-24 0-26 3-26 46 0 41 2 45 23 42 18-2 23-10 25-45zm560-6c3-48 3-48-25-45-26 3-28 7-31 51-3 48-3 48 25 45 26-3 28-7 31-51zm-4648 23c0-23-6-26-72-35-46-6-48-5-48 19 0 26 13 31 88 35 26 1 32-3 32-19zm4739 11c12-7 17-21 16-48-1-35-3-38-29-38-28 0-29 2-28 43 0 23 1 44 1 47 1 8 21 6 40-4zm107-11c10 0 14-13 14-45 0-43-1-45-30-45s-30 1-30 51c0 43 3 50 16 45 9-3 22-6 30-6zm-5026-25c0-14-6-25-14-25-7 0-34-3-60-6-46-7-48-6-44 17 2 19 11 25 38 30 71 13 80 11 80-16zm5148-32c3-42 2-43-27-43-30 0-31 1-31 46 0 44 1 45 28 42 24-3 27-7 30-45zm-5318 13c0-19-6-24-37-30-65-10-75-8-71 17 2 18 11 23 48 28 25 3 48 7 53 7 4 1 7-9 7-22zm3938-74c5-51-2-62-35-53-22 6-28 14-30 37-3 45 4 56 34 52 24-2 29-8 31-36zm102-17c0-43-1-45-30-45s-30 2-30 45 1 45 30 45 30-2 30-45zm94 39c11-4 16-19 16-43 0-45-3-49-35-43-22 4-25 9-25 48 0 45 8 52 44 38zm116-49c0-43-1-45-30-45s-30 2-30 45 1 45 30 45 30-2 30-45zm190 0c0-19 1-38 3-42 1-5-10-9-25-11-27-3-28-2-28 42 0 42 2 46 25 46 22 0 25-4 25-35zm546 25c10 0 14-13 14-45 0-43-1-45-30-45s-30 1-30 51c0 43 3 50 16 45 9-3 22-6 30-6zm-4638-36c-2-15-15-20-61-24-54-5-57-4-57 17 0 23 13 29 75 36 36 3 48-5 43-29zm4757-20c0-44-1-45-29-42-27 3-29 6-28 46 0 23 1 43 1 45 1 2 13 2 29 0 25-4 27-8 27-49zm105-9c0-43-1-45-30-45s-30 2-30 45 1 45 30 45 30-2 30-45zm-5040 16c0-21-26-31-82-31-31 0-38 4-38 19 0 21 18 27 83 30 30 1 37-2 37-18zm5148-28c3-42 2-43-27-43-30 0-31 1-31 46 0 44 1 45 28 42 24-3 27-7 30-45zm100-10c3-42 2-43-27-43-30 0-31 1-31 46 0 44 1 45 28 42 24-3 27-7 30-45zm-5418 18c0-14-10-20-37-25-61-10-73-8-73 13 0 24 13 29 68 30 35 1 42-2 42-18zm5520-26c0-43-1-45-30-45s-30 2-30 45 1 45 30 45 30-2 30-45zm-1580-61c0-45 0-45-32-42-31 3-33 5-34 46-2 41-1 42 32 42 34 0 34 0 34-46zm310-9c0-43-1-45-30-45s-30 2-30 45 1 45 30 45 30-2 30-45zm100-6c0-37-2-39-30-39s-30 2-30 38c0 46 3 51 35 44 22-4 25-10 25-43zm92 0c4-43-7-57-37-45-10 3-15 19-15 46 0 36 3 40 24 40s24-5 28-41zm556-16c3-42 2-43-27-43-30 0-31 1-31 46 0 44 1 45 28 42 24-3 27-7 30-45zm-4648 8c0-13-10-20-37-25-70-11-83-8-83 18 0 23 4 25 53 28 62 4 67 2 67-21zm-180-16c0-21-5-25-29-25-16 0-43-3-60-6-28-6-31-4-31 19s5 26 43 30c23 2 50 4 60 5 12 1 17-5 17-23zm5250-30c0-43-1-45-30-45s-30 2-30 45 1 45 30 45 30-2 30-45zm-5420 16c0-20-26-31-77-31-26 0-33 4-33 19 0 22 16 28 73 30 30 1 37-3 37-18zm5520-27c0-44-1-45-27-42-25 3-28 7-31 46-3 41-2 42 27 42 30 0 31-1 31-46zm-5170-89c0-19-5-25-22-25-13 0-40-3-60-6-36-6-38-5-38 19s4 26 48 30c26 2 53 4 60 5s12-9 12-23zm-180-14c0-23-19-31-76-31-36 0-44 3-44 18 0 28 9 32 67 32 45 0 53-3 53-19zm-172-13c-3-20-10-23-55-26-47-3-53-1-53 17 0 22 16 28 73 30 34 1 38-1 35-21zm4042-30c50-35 73-71 74-120l1-43 35 17c68 33 140-11 140-84 0-22-5-48-10-59-13-24-61-49-93-49-17 0-34-12-52-37-16-21-39-50-53-65-23-25-24-32-23-137l2-111h-39-39l8 51c4 28 11 101 15 162l7 112-29-27c-39-36-75-43-117-23-36 17-57 50-57 91 0 29 17 65 35 76 10 6 9 16-6 45-38 75-15 161 53 203 45 27 106 26 148-2zm-3690-93c0-22-4-25-37-25-21 0-48-3-60-6-20-5-23-2-23 19 0 27 13 32 88 36 28 1 32-2 32-24zm2201-27c8-3 7-30-5-102-8-54-18-101-21-104s-14 3-25 14c-26 26-46 129-31 161 6 13 11 38 11 54v31l30-25c16-14 34-27 41-29zm-2381 17c0-23-4-25-45-26-25-1-51-2-57-3-7-1-14 9-16 21-3 18 3 22 30 26 82 10 88 9 88-18zm-172-12c3-19-2-21-52-25-52-3-56-1-56 19 0 17 7 23 33 26 56 7 72 3 75-20zm5373-12c44-44 51-88 24-142-15-28-15-31 5-56 64-82-42-177-125-111l-28 22 7-90c4-49 9-110 13-135l5-47-45-3-46-4 6 41c5 37 2 46-29 79-29 32-41 38-77 38-35 0-49-6-74-32-26-26-32-39-32-76 0-42-2-45-27-45-22 0-29 6-37 35-5 19-6 50-1 70 7 29 5 37-10 45-29 15-62 12-98-10-39-24-55-62-49-112 6-47-17-42-33 7-16 47 2 107 41 139 18 15 29 32 26 40-10 25 12 81 43 111 23 22 41 29 82 32 67 5 113-21 136-77 14-32 23-39 54-44 21-4 53-20 73-37 47-42 44-19-5 40-41 49-54 77-21 47 17-16 18-16 14 8-4 21-8 24-23 16-50-27-115 8-126 66-5 24 0 37 22 63 23 28 32 32 63 29 20-3 44-8 53-12 13-6 15-3 12 12-9 31 22 90 58 112 18 11 50 20 72 20 31 0 45-7 77-39zm-2921-93c0-40 0-41-20-23-11 10-20 23-20 28 0 8 28 35 38 37 1 0 2-19 2-42zm-2100-23c0-24-3-25-60-25s-60 1-60 25 3 25 60 25 60-1 60-25zm-182-7c-3-20-10-23-60-26-56-3-58-2-58 23 0 24 2 25 61 25 57 0 60-1 57-22zm-168-7c0-16-9-20-55-23-51-3-55-2-55 20 0 20 5 22 55 22 47 0 55-3 55-19zm1370-88c0-43-78-168-94-152-3 2-8 31-11 64l-7 60 48 22c62 27 64 27 64 6zm106-60c-3-42-6-125-6-185v-108h-89c-102 0-101-2-101 106 0 56 2 62 36 95 37 34 94 115 94 132 0 5-9-1-21-14-16-19-19-20-15-6 3 10 6 26 6 34 0 10 6 14 19 10 10-2 25-1 32 4 8 5 23 9 33 9 18 0 18-6 12-77zm-1306 6c0-17-7-19-60-19s-60 2-60 19 8 20 53 23c63 4 67 2 67-23zm180 6c0-24-3-25-60-25s-60 1-60 25 3 25 60 25 60-1 60-25zm-350-5c0-12-7-20-17-20s-35-3-55-6c-36-6-38-5-38 20s2 26 55 26c48 0 55-2 55-20zm2849-36c29-24 41-54 22-54-4 0-24-11-44-25-34-22-39-23-64-10-16 8-40 15-55 15-31 0-33 7-17 43 26 58 107 74 158 31zm3926-6c11 1 37-3 58-9 34-11 37-15 37-48 0-76-36-67-66 16-7 21-13 30-14 20 0-10-4-15-10-12-22 14-8-8 36-55s45-49 42-107l-3-58-72-3-73-3v136 136l23-7c12-4 31-7 42-6zm-7605-94c46-19 70-55 70-107 0-58-22-65-158-51-53 6-61 10-66 30-12 46 40 125 89 137 11 3 21 5 22 6 2 0 21-6 43-15zm825-9c0-17-8-20-52-23-51-3-53-2-53 23s2 26 53 23c44-3 52-6 52-23zm173 3c-3-20-10-23-60-26-56-3-58-2-58 23 0 24 2 25 61 25 57 0 60-1 57-22zm182-3c0-24-3-25-60-25s-60 1-60 25 3 25 60 25 60-1 60-25zm2410-33c4-4 5-31 2-59l-4-53h-68-67l-7 32c-10 52 49 103 109 93 16-3 32-9 35-13zm223-3c28-12 57-58 57-88 0-20-5-21-110-21-62 0-110 4-110 9 0 25 23 68 48 88 29 25 76 30 115 12z"/>
<path d="m5507 874-28-24 12-80c12-85 23-96 47-47 15 32 18 100 6 144l-9 31-28-24z"/>
<path d="m5570 799c0-8-3-25-7-38-7-28 10-22 27 9 7 13 6 21-5 30-12 10-15 10-15-1z"/>
<path d="m6626 788c-8-49 1-103 20-119 19-15 19-15 30 58 10 61 9 63-17 82l-27 20-6-41z"/>
<path d="m6322 724c-19-13-52-63-52-79 0-3 14-5 30-5 17 0 44-7 61-15 28-15 31-14 63 10 18 14 38 25 44 25 22 0 12 28-19 54-36 30-92 35-127 10z"/>
<path d="m2743 3128c-39-8-43-12-43-40v-30l48 7c60 9 62 10 62 46 0 31-2 32-67 17z"/>
<path d="m2593 3098c-39-8-43-12-43-39 0-29 1-30 38-24 67 12 72 15 72 46s-2 32-67 17z"/>
<path d="m2308 3038c-33-9-38-14-38-39 0-27 2-29 28-23 60 15 72 23 72 49 0 27-5 28-62 13z"/>
<path d="m2728 2923c-24-4-28-9-28-35v-30l48 7c59 9 62 11 62 41 0 25-12 28-82 17z"/>
<path d="m2615 2903c-11-2-30-6-42-9-18-3-23-11-23-35 0-29 1-30 38-24 67 12 72 15 72 46 0 29-4 31-45 22z"/>
<path d="m2335 2853c-11-2-30-6-42-9-16-3-23-12-23-29 0-27 12-30 69-19 26 6 31 11 31 35 0 16-3 28-7 28-5-1-17-3-28-6z"/>
<path d="m2163 2823c-16-3-23-11-23-29 0-20 5-24 29-24 45 0 61 10 61 36 0 25-12 28-67 17z"/>
<path d="m2040 2801c-29-5-36-11-38-33-3-26-2-27 30-22 18 3 39 7 46 10 13 4 17 55 5 53-5-1-24-4-43-8z"/>
<path d="m2718 2723c-12-3-18-14-18-33 0-28 2-29 33-24 74 12 77 14 77 39 0 22-4 25-37 24-21-1-46-3-55-6z"/>
<path d="m2583 2703c-29-4-33-8-33-34v-30l48 7c59 8 62 10 62 40 0 25-3 26-77 17z"/>
<path d="m2475 2685c-5-2-22-6-37-9-22-5-28-12-28-32 0-24 3-26 31-20 17 3 40 6 50 6 14 0 19 7 19 30 0 28-8 34-35 25z"/>
<path d="m2315 2661c-35-5-40-10-43-35-4-28-3-29 35-23 21 4 44 7 51 7s12 13 12 30-3 29-7 29c-5-1-26-5-48-8z"/>
<path d="m2028 2613c-22-3-28-10-28-29 0-18 5-24 23-24 46 0 67 12 67 36 0 25-4 26-62 17z"/>
<path d="m2723 2523c-34-6-32-53 1-53 58 0 86 12 86 36 0 21-5 24-32 23-18-1-43-4-55-6z"/>
<path d="m2578 2503c-23-4-28-9-28-33 0-28 2-29 33-24 74 12 77 14 77 39 0 26-11 29-82 18z"/>
<path d="m2438 2483c-23-4-28-9-28-34 0-29 1-30 38-24 58 10 62 13 62 40 0 26-7 28-72 18z"/>
<path d="m2298 2463c-24-4-28-9-28-35 0-29 2-30 31-24 17 3 40 6 50 6 14 0 19 7 19 30 0 32-4 33-72 23z"/>
<path d="m2158 2443c-12-3-18-14-18-35 0-29 2-30 31-24 17 3 38 6 45 6 9 0 14 11 14 30 0 26-3 30-27 29-16-1-36-3-45-6z"/>
<path d="m2018 2423c-12-3-18-14-18-35 0-27 3-30 23-24 12 3 32 6 45 6 18 0 22 6 22 30 0 26-3 30-27 29-16-1-36-3-45-6z"/>
<path d="m2743 2323c-40-4-43-6-43-35s2-30 31-24c17 3 42 6 55 6 20 0 24 5 24 30 0 18-5 29-12 28s-32-3-55-5z"/>
<path d="m2583 2303c-29-4-33-8-33-34 0-29 1-29 43-23 63 9 67 11 67 39 0 26-3 27-77 18z"/>
<path d="m2433 2283c-17-3-23-11-23-29 0-24 3-25 48-22 43 3 47 5 50 31 3 24 0 27-25 26-15-1-38-4-50-6z"/>
<path d="m2320 2270c-41-5-45-8-48-34l-4-29 48 7c56 7 56 8 52 38-3 21-7 23-48 18z"/>
<path d="m2173 2253c-29-4-33-8-33-35s3-30 23-24c12 3 32 6 45 6 18 0 22 6 22 30 0 18-5 29-12 28-7 0-28-3-45-5z"/>
<path d="m2023 2233c-17-3-23-11-23-29 0-23 3-25 43-22 38 3 42 6 45 31 3 28-6 31-65 20z"/>
<path d="m2713 2113c-7-2-13-16-13-29 0-20 5-24 33-24 56 0 77 10 77 36 0 22-4 24-42 23-24 0-49-3-55-6z"/>
<path d="m2578 2103c-22-3-28-10-28-29 0-24 2-25 53-22 48 3 52 5 55 31 4 29-6 31-80 20z"/>
<path d="m2453 2093c-40-4-43-6-43-35 0-27 3-30 23-24 12 3 34 6 50 6 23 0 27 4 27 30 0 17-3 29-7 28-5-1-27-3-50-5z"/>
<path d="m2163 2063c-18-3-23-11-23-35 0-23 4-29 16-24 9 3 29 6 45 6 26 0 29 4 29 30 0 31-9 34-67 23z"/>
<path d="m2043 2052c-40-3-43-5-43-33 0-26 3-29 33-29 43 0 59 12 55 41-3 22-7 24-45 21z"/>
<path d="m2748 1922c-46-3-48-4-48-34 0-23 4-29 16-24 9 3 33 6 55 6 35 0 39 3 39 24 0 30-3 32-62 28z"/>
<path d="m2557 1903c-4-3-7-17-7-31 0-23 3-24 38-18 20 3 45 6 55 6 11 0 17 8 17 25 0 23-3 25-48 25-27 0-52-3-55-7z"/>
<path d="m2433 1893c-16-3-23-11-23-29 0-26 12-29 69-18 24 5 31 12 31 30 0 25-17 29-77 17z"/>
<path d="m2308 1883c-22-3-28-10-28-29 0-18 5-24 23-24 46 0 67 12 67 36 0 25-4 26-62 17z"/>
<path d="m2183 1872c-38-3-43-6-43-28 0-21 4-24 40-24 40 0 56 13 48 42-2 9-17 12-45 10z"/>
<path d="m2e3 1835c0-23 4-25 45-25s45 2 45 25-4 25-45 25-45-2-45-25z"/>
<path d="m2732 1723c-29-4-33-8-30-29 2-14 6-24 11-24h52c43 0 45 1 45 30 0 32-1 32-78 23z"/>
<path d="m2583 1713c-27-4-33-9-33-29 0-23 3-24 55-24 54 0 55 0 55 30 0 32-1 32-77 23z"/>
<path d="m2443 1703c-27-4-33-9-33-29 0-22 4-24 50-24 49 0 50 1 50 30 0 32 1 31-67 23z"/>
<path d="m2550 1480c0-30 1-30 55-30s55 0 55 30-1 30-55 30-55 0-55-30z"/>
<path d="m2178 1493c-38-4-45-14-32-47 4-11 19-16 45-16 38 0 39 1 39 35 0 19-3 34-7 33-5-1-25-3-45-5z"/>
<path d="m2028 1483c-23-4-28-9-28-34s4-29 29-29c47 0 61 10 61 41 0 30-2 31-62 22z"/>
<path d="m2443 1303c-25-3-33-9-33-24 0-16 7-19 51-19 46 0 50 2 47 22-3 24-14 27-65 21z"/>
<path d="m2560 1285c0-23 3-25 50-25s50 2 50 25-3 25-50 25-50-2-50-25z"/>
<path d="m2700 1285c0-24 3-25 55-25s55 1 55 25-3 25-55 25-55-1-55-25z"/>
<path d="m2150 1270c0-28 2-30 40-30s40 2 40 30-2 30-40 30-40-2-40-30z"/>
<path d="m2280 1275c0-23 4-25 45-25s45 2 45 25-4 25-45 25-45-2-45-25z"/>
<path d="m2e3 1260c0-29 2-30 45-30s45 1 45 30-2 30-45 30-45-1-45-30z"/>
<path d="m2018 1103c-11-3-18-14-18-29 0-22 4-24 45-24 43 0 45 1 45 30 0 26-3 30-27 29-16-1-36-3-45-6z"/>
<path d="m2150 1085c0-22 4-25 40-25s40 3 40 25c0 23-4 25-40 25s-40-2-40-25z"/>
<path d="m2280 1086c0-19 7-25 35-30 43-8 55-2 55 30 0 22-4 24-45 24s-45-2-45-24z"/>
<path d="m2e3 890c0-29 2-30 45-30s45 1 45 30-2 30-45 30-45-1-45-30z"/>
<path d="m2150 890c0-28 2-30 40-30s40 2 40 30-2 30-40 30-40-2-40-30z"/>
<path d="m0 15c0-13 489-15 4340-15s4340 2 4340 15-489 15-4340 15-4340-2-4340-15z"/>
</g>
</svg>
